<?xml version="1.0" standalone="no"?>
<!DOCTYPE svg PUBLIC "-//W3C//DTD SVG 20010904//EN"
 "http://www.w3.org/TR/2001/REC-SVG-20010904/DTD/svg10.dtd">
<svg version="1.0" xmlns="http://www.w3.org/2000/svg"
 width="348.000000pt" height="351.000000pt" viewBox="0 0 348.000000 351.000000"
 preserveAspectRatio="xMidYMid meet">

<g transform="translate(0.000000,351.000000) scale(0.100000,-0.100000)"
fill="#000000" stroke="none">
<path d="M1739 3506 c-2 -2 -65 -7 -139 -10 -262 -10 -385 -36 -539 -117 -41
-21 -81 -39 -88 -39 -7 0 -17 -9 -23 -20 -6 -11 -19 -20 -30 -20 -22 0 -160
-80 -208 -122 -18 -15 -37 -28 -42 -28 -19 0 -285 -278 -343 -359 -136 -191
-283 -542 -308 -739 -27 -209 -8 -531 41 -702 10 -36 26 -92 35 -125 9 -33 32
-91 51 -130 51 -101 179 -326 191 -334 5 -3 36 -42 70 -86 58 -76 98 -117 245
-247 89 -79 102 -89 193 -138 44 -23 99 -56 122 -71 42 -29 90 -53 108 -53 6
0 45 -15 88 -32 42 -18 101 -38 130 -44 28 -7 62 -16 75 -21 13 -5 28 -7 33
-4 5 4 9 2 9 -3 0 -8 67 -22 180 -38 14 -2 60 -8 103 -15 58 -8 81 -8 91 0 8
7 49 14 92 17 44 2 104 10 134 16 62 12 188 55 209 72 14 11 144 53 194 63 15
3 27 9 27 13 0 4 19 16 43 26 23 10 63 33 88 49 26 17 71 46 100 65 55 35 126
106 116 116 -4 5 -28 -7 -115 -56 -105 -59 -183 -100 -192 -100 -5 0 -29 -9
-53 -20 -37 -17 -248 -90 -262 -90 -17 0 -1 19 20 24 31 8 215 106 199 106 -6
0 -31 -7 -55 -15 -70 -25 -200 -56 -218 -53 -9 2 23 14 71 27 48 12 98 30 110
40 13 9 36 22 52 29 48 21 21 25 -51 8 -157 -37 -446 -72 -496 -61 -18 4 -77
11 -132 15 -55 4 -122 14 -150 21 l-50 14 -6 100 c-4 55 -10 127 -13 161 -8
61 -7 61 33 107 22 26 54 74 72 107 42 78 62 94 167 126 141 42 232 76 265 98
49 33 93 98 127 188 17 46 49 119 70 163 46 95 100 238 100 266 0 26 14 24 34
-5 9 -15 64 -48 138 -84 122 -59 192 -84 277 -97 24 -4 62 -16 85 -26 23 -10
50 -19 61 -19 12 0 38 -9 59 -20 49 -25 67 -15 30 16 l-29 24 53 -6 c60 -8 74
11 17 22 -56 10 -51 24 6 17 42 -5 51 -3 47 8 -2 7 -23 17 -46 22 -47 9 -48
22 -2 32 17 4 30 13 30 21 0 17 -4 17 -54 3 -21 -6 -50 -8 -64 -4 l-25 6 26
25 c27 25 35 44 18 44 -5 0 -14 -7 -21 -15 -7 -8 -20 -15 -29 -15 -10 0 -28
-11 -41 -25 -13 -14 -30 -25 -38 -25 -21 0 -112 47 -153 80 -20 16 -74 48
-119 71 l-83 43 -35 75 c-19 42 -41 84 -49 93 -8 9 -58 30 -111 48 -133 42
-130 39 -97 94 17 30 29 66 32 104 7 80 -11 114 -82 147 -51 24 -56 25 -84 11
-45 -24 -70 -86 -67 -171 1 -38 6 -84 10 -101 9 -37 12 -36 -115 -58 -143 -25
-319 -127 -319 -185 0 -24 -30 -49 -68 -57 -40 -8 -42 -24 -3 -24 19 0 35 -8
45 -21 8 -12 19 -18 25 -15 5 4 15 -3 21 -14 9 -17 14 -19 26 -9 12 10 20 7
44 -16 41 -39 48 -25 16 31 -35 63 -19 79 96 99 33 5 39 3 55 -22 25 -38 24
-212 -2 -302 -17 -60 -21 -65 -59 -80 -149 -57 -344 -172 -411 -240 -21 -23
-44 -41 -50 -41 -7 0 -36 13 -66 30 -157 85 -400 51 -483 -68 -48 -70 -56
-163 -20 -234 20 -39 2 -35 -35 7 -66 75 -141 265 -172 434 -24 132 -25 349
-3 482 44 255 155 468 349 665 270 275 613 386 1016 329 136 -19 234 -40 283
-60 21 -9 52 -15 70 -13 29 3 28 4 -21 21 -29 10 -56 25 -61 32 -4 8 -23 16
-42 19 -41 5 -90 23 -90 32 0 4 16 4 35 1 40 -7 45 -1 13 14 -20 8 -19 9 7 4
17 -4 63 -12 104 -19 40 -8 76 -18 80 -23 10 -15 94 -43 128 -43 18 0 35 -4
38 -10 3 -5 -3 -10 -14 -10 -28 0 -27 -14 2 -28 37 -18 67 -24 67 -13 0 6 -11
13 -25 17 -14 3 -25 10 -25 15 0 13 13 11 38 -7 12 -8 27 -12 33 -8 8 4 3 12
-12 20 -13 7 -19 13 -14 13 6 1 46 -19 90 -42 59 -32 81 -49 83 -66 3 -18 6
-20 19 -10 9 8 17 9 21 3 4 -5 19 -15 34 -21 41 -18 43 9 3 46 -19 17 -36 31
-39 31 -2 0 -33 17 -67 39 -69 41 -179 94 -185 88 -2 -2 33 -21 77 -42 89 -44
126 -74 74 -61 -16 4 -37 14 -46 22 -8 8 -21 14 -27 14 -7 0 -12 5 -12 11 0 5
-4 8 -9 5 -5 -3 -53 10 -107 29 -144 52 -154 56 -154 70 0 6 -6 12 -12 12 -7
0 -32 5 -55 11 -22 5 -52 8 -65 6 -12 -2 -42 -6 -64 -10 -30 -5 -48 -2 -68 11
-17 11 -35 15 -52 11 -14 -4 -23 -3 -20 2 3 5 -17 14 -45 19 -39 8 -53 7 -64
-3 -14 -15 -79 -17 -155 -6 l-45 7 29 23 c23 17 25 22 11 22 -36 0 -5 12 38
15 24 1 53 8 65 14 11 6 32 11 46 11 44 0 57 9 43 31 -6 10 -20 19 -30 19 -10
0 -16 -4 -12 -9 8 -14 -32 -33 -54 -26 -12 3 -21 0 -25 -10 -3 -8 -11 -15 -18
-15 -9 0 -8 3 2 10 32 21 -159 15 -210 -7 -82 -35 -220 -68 -220 -53 0 6 110
64 144 74 19 6 19 7 0 20 -17 13 -16 15 20 30 45 19 49 19 41 6 -10 -16 11
-12 25 5 7 8 21 15 31 15 10 0 21 5 24 10 4 7 -3 8 -22 4 -15 -4 -45 -8 -65
-8 -23 0 -38 -4 -38 -12 0 -16 -34 -28 -38 -14 -4 12 -48 -12 -67 -36 -6 -8
-37 -14 -75 -16 -41 -2 -65 -7 -65 -15 0 -6 -4 -15 -9 -20 -5 -5 -6 -2 -1 6 6
11 2 13 -21 8 -16 -2 -44 -11 -63 -18 -26 -11 -35 -11 -38 -2 -3 8 -20 4 -54
-13 -27 -14 -52 -23 -57 -21 -24 14 -62 -27 -40 -44 4 -3 1 -14 -7 -25 -12
-15 -16 -16 -24 -5 -5 7 -14 11 -20 7 -7 -5 -8 -1 -4 10 5 13 3 15 -8 9 -8 -4
2 7 21 24 52 48 200 136 222 133 10 -2 18 3 18 11 0 15 94 56 217 96 68 21
165 38 146 24 -7 -5 -9 -14 -4 -22 7 -11 13 -11 32 3 13 9 22 20 19 24 -8 11
104 22 114 11 6 -5 17 -9 25 -9 14 0 14 2 1 10 -25 17 196 3 301 -19 126 -26
319 -89 325 -106 3 -7 18 -13 32 -13 42 1 302 -153 302 -179 0 -3 -7 0 -15 7
-8 6 -20 10 -27 8 -13 -5 62 -48 83 -48 17 0 123 -105 183 -180 178 -225 264
-425 316 -730 15 -91 -1 -392 -26 -485 -3 -11 -8 -28 -11 -39 -3 -12 -1 -16 6
-12 17 11 46 141 56 251 9 98 6 257 -5 340 -7 50 -13 96 -13 103 0 6 -4 12 -9
12 -4 0 -8 7 -8 15 0 9 -12 52 -26 95 -30 95 -28 139 4 68 31 -69 69 -238 83
-363 13 -122 7 -354 -10 -398 -6 -16 -11 -52 -11 -80 -1 -29 -9 -69 -20 -92
-10 -22 -16 -43 -14 -47 9 -14 -34 -125 -95 -249 -33 -68 -58 -125 -55 -128 2
-2 5 -2 7 0 1 2 19 29 40 60 20 30 37 60 37 66 0 6 8 21 19 34 10 13 31 57 47
97 15 40 36 81 46 92 10 10 18 31 18 45 0 14 9 60 19 103 11 42 27 106 35 142
12 52 14 56 11 20 -3 -25 -7 -74 -10 -110 -4 -63 -4 -64 6 -20 6 25 18 51 27
57 51 40 43 464 -13 678 -7 29 -11 73 -8 96 3 30 2 40 -5 30 -8 -10 -15 -2
-31 35 -12 26 -24 59 -28 73 -3 14 -15 42 -26 61 -11 19 -31 55 -44 79 -13 24
-49 80 -79 124 -31 44 -58 87 -61 96 -4 9 -18 26 -32 38 -14 12 -22 25 -17 30
4 4 18 -5 30 -21 11 -17 37 -48 56 -70 41 -47 100 -127 80 -108 -22 20 -35 14
-15 -8 10 -11 22 -17 26 -14 10 6 59 -91 59 -117 0 -9 6 -19 13 -22 20 -8 93
-192 121 -307 37 -150 46 -216 52 -385 8 -179 -12 -316 -76 -545 -44 -155 -48
-196 -11 -103 24 59 37 80 45 72 5 -5 -26 -112 -56 -187 -11 -29 -18 -55 -16
-58 7 -6 68 110 68 129 0 9 9 31 19 49 10 18 24 58 30 88 7 30 18 69 25 85 8
17 19 57 26 90 7 33 17 66 22 73 6 7 8 30 5 52 -5 41 5 96 24 136 13 25 -4
256 -25 349 -64 285 -69 304 -118 405 -17 36 -41 79 -53 95 -21 28 -45 87 -45
108 0 44 125 -189 165 -308 37 -111 76 -273 87 -361 6 -54 15 -91 21 -87 11 6
5 56 -17 158 -8 39 -17 93 -21 120 -7 69 -15 106 -25 130 -5 11 -16 49 -25 85
-19 80 -119 282 -157 318 -15 15 -28 31 -28 36 0 5 -24 46 -54 90 -57 86 -207
245 -293 311 -29 22 -52 45 -53 50 0 9 -19 24 -79 60 -9 6 -38 25 -64 43 -26
18 -67 42 -90 52 -23 11 -53 30 -66 44 -15 16 -39 27 -72 31 -27 4 -60 15 -73
26 -13 10 -31 19 -40 19 -8 0 -76 16 -150 35 -148 38 -355 67 -381 52 -10 -5
-21 -4 -29 2 -7 6 -15 9 -17 7z m876 -436 c3 -5 1 -10 -4 -10 -6 0 -11 5 -11
10 0 6 2 10 4 10 3 0 8 -4 11 -10z m136 -96 c64 -50 145 -131 137 -139 -3 -3
-34 21 -69 53 -35 33 -87 79 -116 103 -51 44 -75 78 -29 42 13 -10 47 -37 77
-59z m-1525 -29 c-20 -15 -36 -19 -36 -10 0 5 38 23 50 24 3 0 -4 -6 -14 -14z
m1824 -132 c0 -8 6 -16 14 -19 14 -5 31 -34 20 -34 -12 0 -94 89 -94 101 0 8
-9 20 -20 27 -11 7 -20 18 -20 24 0 7 23 -10 50 -37 28 -27 50 -55 50 -62z
m-2300 -28 c-7 -9 -15 -13 -19 -10 -3 3 1 10 9 15 21 14 24 12 10 -5z m42 -7
c-7 -7 -12 -8 -12 -2 0 14 12 26 19 19 2 -3 -1 -11 -7 -17z m1966 -43 c-3 -3
-18 11 -33 32 l-28 38 34 -32 c18 -18 30 -35 27 -38z m-1994 10 c-6 -16 -24
-21 -24 -7 0 11 11 22 21 22 5 0 6 -7 3 -15z m-46 -37 c-3 -26 -59 -59 -66
-40 -6 20 -22 13 -22 -8 0 -11 -7 -20 -16 -20 -13 0 -12 5 6 30 12 17 28 30
36 30 8 0 13 4 10 9 -4 5 3 7 14 4 11 -3 20 0 20 6 0 6 5 11 11 11 6 0 9 -10
7 -22z m2437 -21 c27 -47 31 -62 15 -52 -11 7 -60 80 -60 90 0 18 23 -2 45
-38z m-725 13 c13 -8 13 -10 -2 -10 -9 0 -20 5 -23 10 -8 13 5 13 25 0z
m-1840 -93 c0 -2 -10 -12 -21 -23 -22 -19 -22 -19 -10 4 10 18 31 31 31 19z
m2330 -62 c14 -19 14 -19 -2 -6 -10 7 -18 18 -18 24 0 6 1 8 3 6 1 -2 9 -13
17 -24z m83 -137 c3 -10 5 -18 3 -18 -6 0 -66 108 -66 117 0 10 54 -75 63 -99z
m36 -88 c0 -10 -3 -8 -9 5 -12 27 -12 43 0 25 5 -8 9 -22 9 -30z m-2639 -116
c0 -3 -7 -12 -15 -20 -12 -13 -15 -13 -15 -1 0 7 3 17 7 20 8 8 23 9 23 1z
m-30 -143 c0 -6 -4 -13 -10 -16 -5 -3 -10 1 -10 9 0 9 5 16 10 16 6 0 10 -4
10 -9z m-23 -93 c-3 -8 -6 -5 -6 6 -1 11 2 17 5 13 3 -3 4 -12 1 -19z m3093
-263 c0 -8 -4 -15 -10 -15 -5 0 -10 7 -10 15 0 8 5 15 10 15 6 0 10 -7 10 -15z
m-106 -383 c-4 -18 -11 -32 -15 -32 -9 0 -2 44 8 63 10 16 13 0 7 -31z m-1864
-374 c-27 -51 -53 -94 -57 -95 -4 -2 -19 25 -31 58 -20 52 -22 63 -10 75 13
13 111 52 135 53 7 1 -9 -40 -37 -91z m-665 -238 c10 -11 16 -20 13 -20 -3 0
-13 9 -23 20 -10 11 -16 20 -13 20 3 0 13 -9 23 -20z"/>
<path d="M1645 3133 c-43 -7 -58 -21 -40 -39 15 -16 59 -19 50 -4 -6 10 19 15
65 11 l25 -1 -24 20 c-13 11 -28 19 -35 19 -6 -1 -24 -4 -41 -6z"/>
<path d="M1525 3110 l-30 -7 28 -8 c21 -5 33 -3 45 9 18 18 11 19 -43 6z"/>
<path d="M1875 3091 c-3 -2 -26 -5 -52 -5 -27 -1 -48 -5 -48 -11 0 -5 16 -9
35 -7 19 2 69 5 110 8 79 5 106 13 49 15 -19 0 -47 2 -62 3 -15 1 -30 0 -32
-3z"/>
<path d="M1232 3078 c-7 -7 -12 -16 -12 -21 0 -13 98 -3 135 13 29 13 29 14 7
18 -13 2 -31 -3 -40 -10 -15 -13 -23 -14 -49 -9 -5 1 -1 6 7 11 12 8 10 10
-10 10 -15 0 -31 -5 -38 -12z"/>
<path d="M1460 3074 c0 -15 26 -19 34 -5 3 5 -3 11 -14 14 -13 3 -20 0 -20 -9z"/>
<path d="M1565 3051 c-6 -11 9 -23 19 -14 9 9 7 23 -3 23 -6 0 -12 -4 -16 -9z"/>
<path d="M1963 3053 c9 -2 23 -2 30 0 6 3 -1 5 -18 5 -16 0 -22 -2 -12 -5z"/>
<path d="M1942 3033 c-6 -3 -10 -9 -7 -14 5 -8 -103 -5 -240 6 -41 3 -46 2
-25 -7 14 -5 59 -11 100 -11 65 -2 75 -4 72 -19 -2 -14 4 -18 24 -18 27 0 27
1 8 15 -17 14 -11 15 66 9 49 -4 92 -12 101 -20 8 -8 21 -14 27 -14 7 0 12 -5
12 -11 0 -6 7 -9 15 -5 8 3 27 1 41 -5 15 -5 35 -7 46 -3 18 5 18 7 -7 20 -15
8 -35 15 -44 15 -9 1 2 5 24 9 22 4 42 4 45 0 3 -5 19 -11 35 -15 27 -6 28 -5
10 6 -11 7 -23 17 -27 23 -4 5 -47 10 -97 10 -66 1 -91 4 -91 14 0 6 -8 12
-17 13 -10 0 -27 2 -38 4 -11 1 -26 1 -33 -2z"/>
<path d="M1907 2973 c-4 -3 -7 -11 -7 -17 0 -6 5 -5 12 2 6 6 9 14 7 17 -3 3
-9 2 -12 -2z"/>
<path d="M1979 2940 c24 -21 61 -27 61 -11 0 9 -54 31 -74 31 -6 -1 0 -10 13
-20z"/>
<path d="M2294 2945 c36 -19 42 -19 26 0 -7 8 -22 15 -34 15 -18 0 -17 -2 8
-15z"/>
<path d="M1818 2943 c7 -3 16 -2 19 1 4 3 -2 6 -13 5 -11 0 -14 -3 -6 -6z"/>
<path d="M1905 2920 c-25 -11 1 -11 35 0 20 6 21 8 5 8 -11 0 -29 -3 -40 -8z"/>
<path d="M2305 2909 c67 -21 84 -24 70 -10 -11 9 -96 32 -117 30 -7 0 14 -9
47 -20z"/>
<path d="M2379 2856 c13 -16 59 -27 66 -16 5 8 -39 30 -62 30 -12 0 -13 -3 -4
-14z"/>
<path d="M2225 2850 c3 -5 13 -10 21 -10 8 0 12 5 9 10 -3 6 -13 10 -21 10 -8
0 -12 -4 -9 -10z"/>
<path d="M2540 2790 c0 -5 5 -10 10 -10 6 0 10 5 10 10 0 6 -4 10 -10 10 -5 0
-10 -4 -10 -10z"/>
<path d="M2580 2723 c0 -5 17 -21 38 -38 20 -16 31 -21 23 -12 -11 14 -11 17
0 17 9 1 5 8 -10 20 -23 20 -51 27 -51 13z"/>
<path d="M2455 2610 c3 -5 16 -10 28 -10 18 0 19 2 7 10 -20 13 -43 13 -35 0z"/>
<path d="M2572 2571 c-9 -5 10 -26 57 -62 38 -30 72 -62 74 -71 3 -10 13 -18
23 -18 12 0 1 17 -37 58 -30 31 -60 58 -67 60 -7 2 -10 7 -7 12 8 13 -29 30
-43 21z"/>
<path d="M2765 2560 c10 -11 25 -20 33 -20 9 0 6 7 -11 20 -14 11 -29 20 -33
20 -4 0 1 -9 11 -20z"/>
<path d="M2555 2540 c3 -5 16 -15 28 -21 22 -12 22 -12 3 10 -19 21 -43 30
-31 11z"/>
<path d="M2730 2512 c0 -5 25 -31 55 -58 31 -26 73 -71 94 -98 47 -62 121
-140 127 -134 7 8 -57 98 -71 98 -7 0 -34 26 -60 58 -51 62 -145 149 -145 134z"/>
<path d="M2796 2338 c4 -7 29 -41 56 -74 26 -34 66 -92 87 -129 21 -36 42 -62
45 -57 3 5 -2 20 -12 33 -30 41 -100 156 -107 178 -3 11 -19 30 -35 41 -32 23
-44 26 -34 8z"/>
<path d="M2900 2128 c0 -9 5 -20 10 -23 13 -8 13 5 0 25 -8 13 -10 13 -10 -2z"/>
<path d="M2994 2028 c3 -10 9 -25 13 -34 5 -14 3 -15 -15 -5 -14 7 -22 8 -22
2 0 -12 40 -35 40 -24 0 4 5 1 11 -7 15 -22 0 28 -18 60 -8 14 -12 17 -9 8z"/>
<path d="M3030 1934 c0 -7 7 -27 15 -45 10 -24 14 -28 14 -14 0 21 -28 78 -29
59z"/>
<path d="M3061 1835 c-1 -24 15 -52 24 -43 4 3 0 19 -9 35 -13 23 -15 24 -15
8z"/>
</g>
</svg>
